<svg xmlns="http://www.w3.org/2000/svg" viewBox="0 0 100 100" preserveAspectRatio="xMidYMid" width="227" height="227" style="shape-rendering: auto; display: block; background: transparent;" xmlns:xlink="http://www.w3.org/1999/xlink"><g><g transform="rotate(0 50 50)">
  <rect fill="#ffd900" height="12" width="33" ry="6" rx="16.5" y="13" x="33.5">
    <animate repeatCount="indefinite" begin="-1.2591575091575091s" dur="1.282051282051282s" keyTimes="0;1" values="1;0" attributeName="opacity"></animate>
  </rect>
</g><g transform="rotate(6.428571428571429 50 50)">
  <rect fill="#ffd900" height="12" width="33" ry="6" rx="16.5" y="13" x="33.5">
    <animate repeatCount="indefinite" begin="-1.2362637362637363s" dur="1.282051282051282s" keyTimes="0;1" values="1;0" attributeName="opacity"></animate>
  </rect>
</g><g transform="rotate(12.857142857142858 50 50)">
  <rect fill="#ffd900" height="12" width="33" ry="6" rx="16.5" y="13" x="33.5">
    <animate repeatCount="indefinite" begin="-1.2133699633699633s" dur="1.282051282051282s" keyTimes="0;1" values="1;0" attributeName="opacity"></animate>
  </rect>
</g><g transform="rotate(19.285714285714285 50 50)">
  <rect fill="#ffd900" height="12" width="33" ry="6" rx="16.5" y="13" x="33.5">
    <animate repeatCount="indefinite" begin="-1.1904761904761905s" dur="1.282051282051282s" keyTimes="0;1" values="1;0" attributeName="opacity"></animate>
  </rect>
</g><g transform="rotate(25.714285714285715 50 50)">
  <rect fill="#ffd900" height="12" width="33" ry="6" rx="16.5" y="13" x="33.5">
    <animate repeatCount="indefinite" begin="-1.1675824175824177s" dur="1.282051282051282s" keyTimes="0;1" values="1;0" attributeName="opacity"></animate>
  </rect>
</g><g transform="rotate(32.142857142857146 50 50)">
  <rect fill="#ffd900" height="12" width="33" ry="6" rx="16.5" y="13" x="33.5">
    <animate repeatCount="indefinite" begin="-1.1446886446886446s" dur="1.282051282051282s" keyTimes="0;1" values="1;0" attributeName="opacity"></animate>
  </rect>
</g><g transform="rotate(38.57142857142857 50 50)">
  <rect fill="#ffd900" height="12" width="33" ry="6" rx="16.5" y="13" x="33.5">
    <animate repeatCount="indefinite" begin="-1.1217948717948718s" dur="1.282051282051282s" keyTimes="0;1" values="1;0" attributeName="opacity"></animate>
  </rect>
</g><g transform="rotate(45 50 50)">
  <rect fill="#ffd900" height="12" width="33" ry="6" rx="16.5" y="13" x="33.5">
    <animate repeatCount="indefinite" begin="-1.098901098901099s" dur="1.282051282051282s" keyTimes="0;1" values="1;0" attributeName="opacity"></animate>
  </rect>
</g><g transform="rotate(51.42857142857143 50 50)">
  <rect fill="#ffd900" height="12" width="33" ry="6" rx="16.5" y="13" x="33.5">
    <animate repeatCount="indefinite" begin="-1.076007326007326s" dur="1.282051282051282s" keyTimes="0;1" values="1;0" attributeName="opacity"></animate>
  </rect>
</g><g transform="rotate(57.857142857142854 50 50)">
  <rect fill="#ffd900" height="12" width="33" ry="6" rx="16.5" y="13" x="33.5">
    <animate repeatCount="indefinite" begin="-1.0531135531135531s" dur="1.282051282051282s" keyTimes="0;1" values="1;0" attributeName="opacity"></animate>
  </rect>
</g><g transform="rotate(64.28571428571429 50 50)">
  <rect fill="#ffd900" height="12" width="33" ry="6" rx="16.5" y="13" x="33.5">
    <animate repeatCount="indefinite" begin="-1.0302197802197803s" dur="1.282051282051282s" keyTimes="0;1" values="1;0" attributeName="opacity"></animate>
  </rect>
</g><g transform="rotate(70.71428571428571 50 50)">
  <rect fill="#ffd900" height="12" width="33" ry="6" rx="16.5" y="13" x="33.5">
    <animate repeatCount="indefinite" begin="-1.0073260073260073s" dur="1.282051282051282s" keyTimes="0;1" values="1;0" attributeName="opacity"></animate>
  </rect>
</g><g transform="rotate(77.14285714285714 50 50)">
  <rect fill="#ffd900" height="12" width="33" ry="6" rx="16.5" y="13" x="33.5">
    <animate repeatCount="indefinite" begin="-0.9844322344322345s" dur="1.282051282051282s" keyTimes="0;1" values="1;0" attributeName="opacity"></animate>
  </rect>
</g><g transform="rotate(83.57142857142857 50 50)">
  <rect fill="#ffd900" height="12" width="33" ry="6" rx="16.5" y="13" x="33.5">
    <animate repeatCount="indefinite" begin="-0.9615384615384616s" dur="1.282051282051282s" keyTimes="0;1" values="1;0" attributeName="opacity"></animate>
  </rect>
</g><g transform="rotate(90 50 50)">
  <rect fill="#ffd900" height="12" width="33" ry="6" rx="16.5" y="13" x="33.5">
    <animate repeatCount="indefinite" begin="-0.9386446886446886s" dur="1.282051282051282s" keyTimes="0;1" values="1;0" attributeName="opacity"></animate>
  </rect>
</g><g transform="rotate(96.42857142857143 50 50)">
  <rect fill="#ffd900" height="12" width="33" ry="6" rx="16.5" y="13" x="33.5">
    <animate repeatCount="indefinite" begin="-0.9157509157509157s" dur="1.282051282051282s" keyTimes="0;1" values="1;0" attributeName="opacity"></animate>
  </rect>
</g><g transform="rotate(102.85714285714286 50 50)">
  <rect fill="#ffd900" height="12" width="33" ry="6" rx="16.5" y="13" x="33.5">
    <animate repeatCount="indefinite" begin="-0.8928571428571429s" dur="1.282051282051282s" keyTimes="0;1" values="1;0" attributeName="opacity"></animate>
  </rect>
</g><g transform="rotate(109.28571428571429 50 50)">
  <rect fill="#ffd900" height="12" width="33" ry="6" rx="16.5" y="13" x="33.5">
    <animate repeatCount="indefinite" begin="-0.86996336996337s" dur="1.282051282051282s" keyTimes="0;1" values="1;0" attributeName="opacity"></animate>
  </rect>
</g><g transform="rotate(115.71428571428571 50 50)">
  <rect fill="#ffd900" height="12" width="33" ry="6" rx="16.5" y="13" x="33.5">
    <animate repeatCount="indefinite" begin="-0.8470695970695971s" dur="1.282051282051282s" keyTimes="0;1" values="1;0" attributeName="opacity"></animate>
  </rect>
</g><g transform="rotate(122.14285714285714 50 50)">
  <rect fill="#ffd900" height="12" width="33" ry="6" rx="16.5" y="13" x="33.5">
    <animate repeatCount="indefinite" begin="-0.8241758241758241s" dur="1.282051282051282s" keyTimes="0;1" values="1;0" attributeName="opacity"></animate>
  </rect>
</g><g transform="rotate(128.57142857142858 50 50)">
  <rect fill="#ffd900" height="12" width="33" ry="6" rx="16.5" y="13" x="33.5">
    <animate repeatCount="indefinite" begin="-0.8012820512820513s" dur="1.282051282051282s" keyTimes="0;1" values="1;0" attributeName="opacity"></animate>
  </rect>
</g><g transform="rotate(135 50 50)">
  <rect fill="#ffd900" height="12" width="33" ry="6" rx="16.5" y="13" x="33.5">
    <animate repeatCount="indefinite" begin="-0.7783882783882784s" dur="1.282051282051282s" keyTimes="0;1" values="1;0" attributeName="opacity"></animate>
  </rect>
</g><g transform="rotate(141.42857142857142 50 50)">
  <rect fill="#ffd900" height="12" width="33" ry="6" rx="16.5" y="13" x="33.5">
    <animate repeatCount="indefinite" begin="-0.7554945054945055s" dur="1.282051282051282s" keyTimes="0;1" values="1;0" attributeName="opacity"></animate>
  </rect>
</g><g transform="rotate(147.85714285714286 50 50)">
  <rect fill="#ffd900" height="12" width="33" ry="6" rx="16.5" y="13" x="33.5">
    <animate repeatCount="indefinite" begin="-0.7326007326007326s" dur="1.282051282051282s" keyTimes="0;1" values="1;0" attributeName="opacity"></animate>
  </rect>
</g><g transform="rotate(154.28571428571428 50 50)">
  <rect fill="#ffd900" height="12" width="33" ry="6" rx="16.5" y="13" x="33.5">
    <animate repeatCount="indefinite" begin="-0.7097069597069597s" dur="1.282051282051282s" keyTimes="0;1" values="1;0" attributeName="opacity"></animate>
  </rect>
</g><g transform="rotate(160.71428571428572 50 50)">
  <rect fill="#ffd900" height="12" width="33" ry="6" rx="16.5" y="13" x="33.5">
    <animate repeatCount="indefinite" begin="-0.6868131868131868s" dur="1.282051282051282s" keyTimes="0;1" values="1;0" attributeName="opacity"></animate>
  </rect>
</g><g transform="rotate(167.14285714285714 50 50)">
  <rect fill="#ffd900" height="12" width="33" ry="6" rx="16.5" y="13" x="33.5">
    <animate repeatCount="indefinite" begin="-0.6639194139194139s" dur="1.282051282051282s" keyTimes="0;1" values="1;0" attributeName="opacity"></animate>
  </rect>
</g><g transform="rotate(173.57142857142858 50 50)">
  <rect fill="#ffd900" height="12" width="33" ry="6" rx="16.5" y="13" x="33.5">
    <animate repeatCount="indefinite" begin="-0.6410256410256411s" dur="1.282051282051282s" keyTimes="0;1" values="1;0" attributeName="opacity"></animate>
  </rect>
</g><g transform="rotate(180 50 50)">
  <rect fill="#ffd900" height="12" width="33" ry="6" rx="16.5" y="13" x="33.5">
    <animate repeatCount="indefinite" begin="-0.6181318681318682s" dur="1.282051282051282s" keyTimes="0;1" values="1;0" attributeName="opacity"></animate>
  </rect>
</g><g transform="rotate(186.42857142857142 50 50)">
  <rect fill="#ffd900" height="12" width="33" ry="6" rx="16.5" y="13" x="33.5">
    <animate repeatCount="indefinite" begin="-0.5952380952380952s" dur="1.282051282051282s" keyTimes="0;1" values="1;0" attributeName="opacity"></animate>
  </rect>
</g><g transform="rotate(192.85714285714286 50 50)">
  <rect fill="#ffd900" height="12" width="33" ry="6" rx="16.5" y="13" x="33.5">
    <animate repeatCount="indefinite" begin="-0.5723443223443223s" dur="1.282051282051282s" keyTimes="0;1" values="1;0" attributeName="opacity"></animate>
  </rect>
</g><g transform="rotate(199.28571428571428 50 50)">
  <rect fill="#ffd900" height="12" width="33" ry="6" rx="16.5" y="13" x="33.5">
    <animate repeatCount="indefinite" begin="-0.5494505494505495s" dur="1.282051282051282s" keyTimes="0;1" values="1;0" attributeName="opacity"></animate>
  </rect>
</g><g transform="rotate(205.71428571428572 50 50)">
  <rect fill="#ffd900" height="12" width="33" ry="6" rx="16.5" y="13" x="33.5">
    <animate repeatCount="indefinite" begin="-0.5265567765567766s" dur="1.282051282051282s" keyTimes="0;1" values="1;0" attributeName="opacity"></animate>
  </rect>
</g><g transform="rotate(212.14285714285714 50 50)">
  <rect fill="#ffd900" height="12" width="33" ry="6" rx="16.5" y="13" x="33.5">
    <animate repeatCount="indefinite" begin="-0.5036630036630036s" dur="1.282051282051282s" keyTimes="0;1" values="1;0" attributeName="opacity"></animate>
  </rect>
</g><g transform="rotate(218.57142857142858 50 50)">
  <rect fill="#ffd900" height="12" width="33" ry="6" rx="16.5" y="13" x="33.5">
    <animate repeatCount="indefinite" begin="-0.4807692307692308s" dur="1.282051282051282s" keyTimes="0;1" values="1;0" attributeName="opacity"></animate>
  </rect>
</g><g transform="rotate(225 50 50)">
  <rect fill="#ffd900" height="12" width="33" ry="6" rx="16.5" y="13" x="33.5">
    <animate repeatCount="indefinite" begin="-0.45787545787545786s" dur="1.282051282051282s" keyTimes="0;1" values="1;0" attributeName="opacity"></animate>
  </rect>
</g><g transform="rotate(231.42857142857142 50 50)">
  <rect fill="#ffd900" height="12" width="33" ry="6" rx="16.5" y="13" x="33.5">
    <animate repeatCount="indefinite" begin="-0.434981684981685s" dur="1.282051282051282s" keyTimes="0;1" values="1;0" attributeName="opacity"></animate>
  </rect>
</g><g transform="rotate(237.85714285714286 50 50)">
  <rect fill="#ffd900" height="12" width="33" ry="6" rx="16.5" y="13" x="33.5">
    <animate repeatCount="indefinite" begin="-0.41208791208791207s" dur="1.282051282051282s" keyTimes="0;1" values="1;0" attributeName="opacity"></animate>
  </rect>
</g><g transform="rotate(244.28571428571428 50 50)">
  <rect fill="#ffd900" height="12" width="33" ry="6" rx="16.5" y="13" x="33.5">
    <animate repeatCount="indefinite" begin="-0.3891941391941392s" dur="1.282051282051282s" keyTimes="0;1" values="1;0" attributeName="opacity"></animate>
  </rect>
</g><g transform="rotate(250.71428571428572 50 50)">
  <rect fill="#ffd900" height="12" width="33" ry="6" rx="16.5" y="13" x="33.5">
    <animate repeatCount="indefinite" begin="-0.3663003663003663s" dur="1.282051282051282s" keyTimes="0;1" values="1;0" attributeName="opacity"></animate>
  </rect>
</g><g transform="rotate(257.14285714285717 50 50)">
  <rect fill="#ffd900" height="12" width="33" ry="6" rx="16.5" y="13" x="33.5">
    <animate repeatCount="indefinite" begin="-0.3434065934065934s" dur="1.282051282051282s" keyTimes="0;1" values="1;0" attributeName="opacity"></animate>
  </rect>
</g><g transform="rotate(263.57142857142856 50 50)">
  <rect fill="#ffd900" height="12" width="33" ry="6" rx="16.5" y="13" x="33.5">
    <animate repeatCount="indefinite" begin="-0.32051282051282054s" dur="1.282051282051282s" keyTimes="0;1" values="1;0" attributeName="opacity"></animate>
  </rect>
</g><g transform="rotate(270 50 50)">
  <rect fill="#ffd900" height="12" width="33" ry="6" rx="16.5" y="13" x="33.5">
    <animate repeatCount="indefinite" begin="-0.2976190476190476s" dur="1.282051282051282s" keyTimes="0;1" values="1;0" attributeName="opacity"></animate>
  </rect>
</g><g transform="rotate(276.42857142857144 50 50)">
  <rect fill="#ffd900" height="12" width="33" ry="6" rx="16.5" y="13" x="33.5">
    <animate repeatCount="indefinite" begin="-0.27472527472527475s" dur="1.282051282051282s" keyTimes="0;1" values="1;0" attributeName="opacity"></animate>
  </rect>
</g><g transform="rotate(282.85714285714283 50 50)">
  <rect fill="#ffd900" height="12" width="33" ry="6" rx="16.5" y="13" x="33.5">
    <animate repeatCount="indefinite" begin="-0.2518315018315018s" dur="1.282051282051282s" keyTimes="0;1" values="1;0" attributeName="opacity"></animate>
  </rect>
</g><g transform="rotate(289.2857142857143 50 50)">
  <rect fill="#ffd900" height="12" width="33" ry="6" rx="16.5" y="13" x="33.5">
    <animate repeatCount="indefinite" begin="-0.22893772893772893s" dur="1.282051282051282s" keyTimes="0;1" values="1;0" attributeName="opacity"></animate>
  </rect>
</g><g transform="rotate(295.7142857142857 50 50)">
  <rect fill="#ffd900" height="12" width="33" ry="6" rx="16.5" y="13" x="33.5">
    <animate repeatCount="indefinite" begin="-0.20604395604395603s" dur="1.282051282051282s" keyTimes="0;1" values="1;0" attributeName="opacity"></animate>
  </rect>
</g><g transform="rotate(302.14285714285717 50 50)">
  <rect fill="#ffd900" height="12" width="33" ry="6" rx="16.5" y="13" x="33.5">
    <animate repeatCount="indefinite" begin="-0.18315018315018314s" dur="1.282051282051282s" keyTimes="0;1" values="1;0" attributeName="opacity"></animate>
  </rect>
</g><g transform="rotate(308.57142857142856 50 50)">
  <rect fill="#ffd900" height="12" width="33" ry="6" rx="16.5" y="13" x="33.5">
    <animate repeatCount="indefinite" begin="-0.16025641025641027s" dur="1.282051282051282s" keyTimes="0;1" values="1;0" attributeName="opacity"></animate>
  </rect>
</g><g transform="rotate(315 50 50)">
  <rect fill="#ffd900" height="12" width="33" ry="6" rx="16.5" y="13" x="33.5">
    <animate repeatCount="indefinite" begin="-0.13736263736263737s" dur="1.282051282051282s" keyTimes="0;1" values="1;0" attributeName="opacity"></animate>
  </rect>
</g><g transform="rotate(321.42857142857144 50 50)">
  <rect fill="#ffd900" height="12" width="33" ry="6" rx="16.5" y="13" x="33.5">
    <animate repeatCount="indefinite" begin="-0.11446886446886446s" dur="1.282051282051282s" keyTimes="0;1" values="1;0" attributeName="opacity"></animate>
  </rect>
</g><g transform="rotate(327.85714285714283 50 50)">
  <rect fill="#ffd900" height="12" width="33" ry="6" rx="16.5" y="13" x="33.5">
    <animate repeatCount="indefinite" begin="-0.09157509157509157s" dur="1.282051282051282s" keyTimes="0;1" values="1;0" attributeName="opacity"></animate>
  </rect>
</g><g transform="rotate(334.2857142857143 50 50)">
  <rect fill="#ffd900" height="12" width="33" ry="6" rx="16.5" y="13" x="33.5">
    <animate repeatCount="indefinite" begin="-0.06868131868131869s" dur="1.282051282051282s" keyTimes="0;1" values="1;0" attributeName="opacity"></animate>
  </rect>
</g><g transform="rotate(340.7142857142857 50 50)">
  <rect fill="#ffd900" height="12" width="33" ry="6" rx="16.5" y="13" x="33.5">
    <animate repeatCount="indefinite" begin="-0.045787545787545784s" dur="1.282051282051282s" keyTimes="0;1" values="1;0" attributeName="opacity"></animate>
  </rect>
</g><g transform="rotate(347.14285714285717 50 50)">
  <rect fill="#ffd900" height="12" width="33" ry="6" rx="16.5" y="13" x="33.5">
    <animate repeatCount="indefinite" begin="-0.022893772893772892s" dur="1.282051282051282s" keyTimes="0;1" values="1;0" attributeName="opacity"></animate>
  </rect>
</g><g transform="rotate(353.57142857142856 50 50)">
  <rect fill="#ffd900" height="12" width="33" ry="6" rx="16.5" y="13" x="33.5">
    <animate repeatCount="indefinite" begin="0s" dur="1.282051282051282s" keyTimes="0;1" values="1;0" attributeName="opacity"></animate>
  </rect>
</g><g></g></g><!-- [ldio] generated by https://loading.io --></svg>